# xmcd
#
# Track frame offsets:
#  150
#  24030
#  43727
#  69888
#  85273
#  106530
#  126979
#  153412
#  205933
#  220914
#
# Disc length: 3200 seconds
#
# Revision: 0
# Processed by: cddbd v1.4PL0 Copyright (c) Steve Scherf et al.
# Submitted via: AltoMP3_Maker 3.0
#
DISCID=7a0c7e0a
DTITLE=Walter Liniger - Better Day
DYEAR=1900
DGENRE=
TTITLE0=Take Me Back
TTITLE1=Come To Me
TTITLE2=Picked No Cotton
TTITLE3=Abendlied - Evening Song
TTITLE4=Better Day
TTITLE5=Take A Ride With Me
TTITLE6=Leaving You
TTITLE7=Train Whistle Stop
TTITLE8=Madison Stomp
TTITLE9=John Henry
EXTD=
EXTT0=
EXTT1=
EXTT2=
EXTT3=
EXTT4=
EXTT5=
EXTT6=
EXTT7=
EXTT8=
EXTT9=
PLAYORDER=
